<svg viewBox="0 0 512 512" xmlns="http://www.w3.org/2000/svg"><g data-name="/ FILLED_OUTLINE"><path d="M72 72v400a16 16 0 0 0 16 16h272a16 16 0 0 0 16-16V72Z" fill="#ffffff" class="fill-0071af"></path><path d="M408 24H104a32 32 0 0 0-32 32v16h304V56a32 32 0 0 1 32-32Z" fill="#ffffff" class="fill-7db6d6"></path><path d="M408 24a32 32 0 0 1 32 32v240a16 16 0 0 1-16 16h-48V56a32 32 0 0 1 32-32Z" fill="#ffffff" class="fill-00659d"></path><path d="M72 72v32l25.331 16 25.332-16 25.332 16 25.328-16 25.33 16 25.331-16 25.334 16 25.335-16 25.334 16 25.335-16 25.34 16L376 104V72Z" fill="#ffffff" class="fill-5ca4cc"></path><path d="M176 176h112v16H176zM176 256h112v16H176zM176 336h112v16H176z" fill="#26401a" class="fill-59cea7"></path><rect height="48" rx="16" width="48" x="104" y="160" fill="#15ab21" class="fill-31c292"></rect><rect height="48" rx="16" width="48" x="104" y="240" fill="#15ab21" class="fill-31c292"></rect><rect height="48" rx="16" width="48" x="104" y="320" fill="#15ab21" class="fill-31c292"></rect><rect height="48" rx="16" width="48" x="104" y="400" fill="#15ab21" class="fill-31c292"></rect><path d="M176 416h112v16H176z" fill="#26401a" class="fill-59cea7"></path><path d="m344 424-16 24-16-24V160a16 16 0 0 1 16-16 16 16 0 0 1 16 16Z" fill="#ffffff" class="fill-dfdfdf"></path><path d="M344 184h-32v-24a16 16 0 0 1 16-16 16 16 0 0 1 16 16Z" fill="#f25454" class="fill-ec9090"></path><path d="M72 72v400a16 16 0 0 0 16 16h272a16 16 0 0 0 16-16V72Z" fill="#ffffff" class="fill-0071af"></path><path d="M408 24H104a32 32 0 0 0-32 32v16h304V56a32 32 0 0 1 32-32Z" fill="#ffffff" class="fill-7db6d6"></path><path d="M408 24a32 32 0 0 1 32 32v240a16 16 0 0 1-16 16h-48V56a32 32 0 0 1 32-32Z" fill="#ffffff" class="fill-00659d"></path><path d="M176 176h112v16H176zM176 256h112v16H176zM176 336h112v16H176z" fill="#26401a" class="fill-59cea7"></path><rect height="48" rx="16" width="48" x="104" y="160" fill="#15ab21" class="fill-31c292"></rect><rect height="48" rx="16" width="48" x="104" y="240" fill="#15ab21" class="fill-31c292"></rect><rect height="48" rx="16" width="48" x="104" y="320" fill="#15ab21" class="fill-31c292"></rect><rect height="48" rx="16" width="48" x="104" y="400" fill="#15ab21" class="fill-31c292"></rect><path d="M176 416h112v16H176z" fill="#26401a" class="fill-59cea7"></path><path d="m344 424-16 24-16-24V160a16 16 0 0 1 16-16 16 16 0 0 1 16 16Z" fill="#ffffff" class="fill-dfdfdf"></path><path d="M344 184h-32v-24a16 16 0 0 1 16-16 16 16 0 0 1 16 16Z" fill="#f25454" class="fill-ec9090"></path><path d="M376 472.005V184c0 163.545-129.15 296.905-291.023 303.706A16.055 16.055 0 0 0 88 488h272a16 16 0 0 0 16-15.995Z" fill="#ffffff" class="fill-006095"></path><path d="M421.146 26.827A31.872 31.872 0 0 0 408 24a32 32 0 0 0-32 32v32a64.025 64.025 0 0 1 45.146-61.173Z" fill="#ffffff" class="fill-005686"></path><path d="M376 80H88v32l25.331 16 25.332-16 25.332 16 25.328-16 25.33 16 25.331-16 25.334 16 25.335-16 25.334 16 25.335-16 25.339 16 9.339-5.897V80z" fill="#ffffff" class="fill-006095"></path><path d="M72 72v32l25.331 16 25.332-16 25.332 16 25.328-16 25.33 16 25.331-16 25.334 16 25.335-16 25.334 16 25.335-16 25.34 16L376 104V72Z" fill="#ffffff" class="fill-5ca4cc"></path><path d="M247.827 432H288v-16h-19.591q-9.94 8.422-20.582 16Z" fill="#ff0011" class="fill-4cb08e"></path><path d="M312 370.568V424l16 24 16-24V319.887a304.106 304.106 0 0 1-32 50.68Z" fill="#bebebe" class="fill-bebebe"></path><path d="M408 16H104a40.046 40.046 0 0 0-40 40v416a24.027 24.027 0 0 0 24 24h272a24.027 24.027 0 0 0 24-24V320h40a24.027 24.027 0 0 0 24-24V56a40.046 40.046 0 0 0-40-40Zm-40 304v152a8.01 8.01 0 0 1-8 8H88a8.01 8.01 0 0 1-8-8V118.515l17.331 10.947 25.332-16 25.332 16 25.327-16 25.331 16 25.331-16 25.334 16 25.334-16 25.335 16 25.335-16 25.34 15.999L368 118.513Zm0-220.41-17.339 10.95-25.339-16.002-25.335 16-25.335-16-25.334 16-25.334-16-25.33 16-25.332-16-25.327 16-25.332-16-25.332 16L80 99.591V80h288ZM368 56v8H80v-8a24.027 24.027 0 0 1 24-24h272.022A39.79 39.79 0 0 0 368 56Zm64 240a8.01 8.01 0 0 1-8 8h-40V56a24 24 0 0 1 48 0Z" fill="#000000" class="fill-000000"></path><path d="M136 152h-16a24.027 24.027 0 0 0-24 24v16a24.027 24.027 0 0 0 24 24h16a24.027 24.027 0 0 0 24-24v-16a24.027 24.027 0 0 0-24-24Zm8 40a8.01 8.01 0 0 1-8 8h-16a8.01 8.01 0 0 1-8-8v-16a8.01 8.01 0 0 1 8-8h16a8.01 8.01 0 0 1 8 8ZM176 176h112v16H176zM136 232h-16a24.027 24.027 0 0 0-24 24v16a24.027 24.027 0 0 0 24 24h16a24.027 24.027 0 0 0 24-24v-16a24.027 24.027 0 0 0-24-24Zm8 40a8.01 8.01 0 0 1-8 8h-16a8.01 8.01 0 0 1-8-8v-16a8.01 8.01 0 0 1 8-8h16a8.01 8.01 0 0 1 8 8ZM176 256h112v16H176zM136 312h-16a24.027 24.027 0 0 0-24 24v16a24.027 24.027 0 0 0 24 24h16a24.027 24.027 0 0 0 24-24v-16a24.027 24.027 0 0 0-24-24Zm8 40a8.01 8.01 0 0 1-8 8h-16a8.01 8.01 0 0 1-8-8v-16a8.01 8.01 0 0 1 8-8h16a8.01 8.01 0 0 1 8 8ZM176 336h112v16H176zM136 392h-16a24.027 24.027 0 0 0-24 24v16a24.027 24.027 0 0 0 24 24h16a24.027 24.027 0 0 0 24-24v-16a24.027 24.027 0 0 0-24-24Zm8 40a8.01 8.01 0 0 1-8 8h-16a8.01 8.01 0 0 1-8-8v-16a8.01 8.01 0 0 1 8-8h16a8.01 8.01 0 0 1 8 8ZM176 416h112v16H176zM328 136a24.027 24.027 0 0 0-24 24v266.422l24 36 24-36V160a24.027 24.027 0 0 0-24-24Zm8 285.578-8 12-8-12V192h16ZM336 176h-16v-16a8 8 0 0 1 16 0Z" fill="#000000" class="fill-000000"></path></g></svg>